<svg width="20" height="21" viewBox="0 0 20 21" fill="none" xmlns="http://www.w3.org/2000/svg">
<path id="confetti (Traced)" fill-rule="evenodd" clip-rule="evenodd" d="M8.92421 0.981257C7.63149 1.63316 7.32034 3.25924 8.2759 4.36955C8.73522 4.90342 9.35176 5.13651 10.1517 5.07903C10.8658 5.02759 11.3588 4.74357 11.7835 4.13871C12.1654 3.59481 12.2369 2.55753 11.933 1.96955C11.3252 0.793785 10.0965 0.390104 8.92421 0.981257ZM13.8845 0.936664C13.4251 1.42319 13.7404 2.13186 14.4162 2.13186C14.8419 2.13186 15.1005 1.86788 15.1005 1.43342C15.1005 0.769648 14.3369 0.457708 13.8845 0.936664ZM17.2599 2.02559C16.4221 2.1878 15.7216 2.82856 15.5226 3.61465C15.4219 4.01271 15.3749 4.05945 14.9737 4.16101C14.4073 4.3045 13.7879 4.81905 13.5471 5.34628C13.1852 6.13881 13.3526 7.16985 13.9427 7.78258C14.4396 8.29856 15.2034 8.02948 15.2034 7.3385C15.2034 7.16453 15.1108 6.90516 14.9977 6.76218C14.8846 6.6191 14.7921 6.44144 14.7921 6.3673C14.7921 6.09309 15.0279 5.73063 15.2812 5.61588C15.5024 5.51565 15.6222 5.53804 16.0706 5.76377C16.5016 5.98069 16.6496 6.01076 16.8719 5.92669C17.3735 5.73697 17.5045 5.20248 17.157 4.7631C16.5411 3.98427 17.407 3.06042 18.1853 3.66599C19.0239 4.31841 19.9283 3.18969 19.1133 2.50772C18.6437 2.11468 17.857 1.91002 17.2599 2.02559ZM10.4991 2.45433C10.7539 2.7539 10.7222 3.12097 10.4152 3.42636C10.2017 3.63868 10.0887 3.67663 9.82394 3.62488C9.41963 3.54592 9.23948 3.31846 9.23948 2.88675C9.23948 2.21337 10.0557 1.93314 10.4991 2.45433ZM5.71647 4.97001C5.55113 5.15298 0.396484 18.6923 0.396484 18.9435C0.396484 19.211 0.81591 19.621 1.08963 19.621C1.37394 19.621 14.6849 14.6962 15.0732 14.4473C15.3485 14.2708 15.4674 13.8769 15.3227 13.6199C15.2652 13.5174 13.2636 11.4891 10.8748 9.11227C6.97423 5.23132 6.49846 4.79102 6.20489 4.79102C6.02381 4.79102 5.80603 4.8708 5.71647 4.97001ZM11.1152 6.53411C10.6049 6.736 10.5598 7.50521 11.0398 7.81818C11.5193 8.13063 12.1186 7.78893 12.1186 7.20309C12.1186 6.6865 11.6015 6.34183 11.1152 6.53411ZM18.4158 6.53411C17.9055 6.736 17.8604 7.50521 18.3405 7.81818C18.8199 8.13063 19.4192 7.78893 19.4192 7.20309C19.4192 6.6865 18.9021 6.34183 18.4158 6.53411ZM11.4583 11.823C11.4135 11.8675 5.72408 9.69882 5.60192 9.59072C5.55205 9.54653 5.73179 8.91028 6.00448 8.16581L6.49712 6.82068L8.99547 9.30414C10.3696 10.67 11.4779 11.8036 11.4583 11.823ZM16.2316 8.57522C16.0808 8.72526 16.026 8.91611 16.026 9.29115V9.80253H15.5072C15.0934 9.80253 14.9372 9.85336 14.736 10.0536C14.456 10.332 14.4288 10.4914 14.5977 10.8604C14.7405 11.172 15.0937 11.3367 15.6195 11.3367H16.026V11.8287C16.026 12.4144 16.292 12.7685 16.7319 12.7685C17.1744 12.7685 17.4655 12.3906 17.4655 11.8159V11.3367H17.9361C18.3229 11.3367 18.4622 11.2814 18.7178 11.0273C18.9672 10.7793 19.0157 10.6626 18.9626 10.4392C18.8595 10.0061 18.5417 9.80253 17.9682 9.80253H17.4655V9.29115C17.4655 8.68425 17.2204 8.37067 16.7457 8.37067C16.5743 8.37067 16.3458 8.46159 16.2316 8.57522ZM10.4001 13.0471C11.5191 13.4747 12.3983 13.8592 12.3538 13.9013C12.3092 13.9435 11.5072 14.2595 10.5714 14.6037L8.86992 15.2292L6.56118 14.3446C5.29139 13.8581 4.21152 13.4225 4.16154 13.3767C4.11013 13.3295 4.25933 12.7869 4.50549 12.1262L4.94034 10.9591L6.6529 11.6143C7.59478 11.9748 9.28102 12.6195 10.4001 13.0471ZM5.15463 15.3928C5.99019 15.713 6.63799 16.0087 6.59419 16.0498C6.51501 16.1243 2.64024 17.5755 2.52076 17.5755C2.46389 17.5755 2.62697 17.1043 3.27282 15.4021C3.3956 15.0787 3.52742 14.8132 3.56577 14.8123C3.60413 14.8114 4.31907 15.0726 5.15463 15.3928Z" fill="black" stroke="#EFEFEF" stroke-width="0.8"/>
</svg>
