<svg width="14" height="14" viewBox="0 0 14 14" fill="none" xmlns="http://www.w3.org/2000/svg">
<g id="Vector">
<path id="Vector_2" d="M12.8259 7.49601C12.8844 7.68535 12.9136 7.88101 12.9136 8.07982C12.9136 8.52635 12.7625 8.95553 12.4895 9.30582C12.548 9.49516 12.5772 9.69081 12.5772 9.88962C12.5772 10.3362 12.4261 10.7653 12.1531 11.1156C12.2116 11.305 12.2409 11.5006 12.2409 11.6994C12.2409 12.5136 11.742 13.2473 10.9685 13.5676C10.8325 13.6245 10.6859 13.6535 10.5379 13.6528L0.77 13.6528C0.482375 13.6528 0.25 13.4272 0.25 13.1479L0.250001 7.40449C0.250001 7.12521 0.482376 6.89958 0.770001 6.89958L2.87113 6.89958L4.26538 1.99559C4.48963 1.20508 5.23713 0.652833 6.08213 0.652833C6.56475 0.652834 7.01488 0.839021 7.348 1.17984C7.68113 1.51908 7.85175 1.96403 7.82738 2.43266L7.72988 4.37185L11.6283 4.37185C11.8249 4.37185 12.0166 4.42234 12.1856 4.51859C12.8421 4.88939 13.25 5.56156 13.25 6.27001C13.25 6.71655 13.0989 7.14573 12.8259 7.49601ZM1.42 8.03722L1.42 12.5183L2.73625 12.5183L2.73625 8.03722L1.42 8.03722ZM11.612 5.50633L6.503 5.50633L6.659 2.37586C6.66875 2.18809 6.58263 2.01137 6.42175 1.89461C6.32263 1.82361 6.20075 1.78731 6.07888 1.78889C5.92317 1.79036 5.77216 1.84083 5.64851 1.93272C5.52486 2.02462 5.43525 2.15298 5.39313 2.29854L3.77625 7.98672L3.77625 12.5183L10.5265 12.5183C10.6889 12.4477 10.8269 12.3329 10.9237 12.1879C11.0206 12.0429 11.0723 11.8738 11.0725 11.701C11.0725 11.548 11.0351 11.4028 10.9604 11.2703L10.7345 10.8695L11.0904 10.5697C11.1905 10.4854 11.2708 10.3812 11.3258 10.2642C11.3808 10.1471 11.4091 10.0199 11.4089 9.8912C11.4089 9.73815 11.3715 9.59299 11.2967 9.46045L11.0709 9.05967L11.4267 8.75988C11.5269 8.67564 11.6072 8.57143 11.6622 8.45435C11.7171 8.33727 11.7455 8.21007 11.7453 8.0814C11.7453 7.92834 11.7079 7.78318 11.6331 7.65064L11.4056 7.24829L11.7615 6.94849C11.8617 6.86426 11.942 6.76005 11.9969 6.64297C12.0519 6.52589 12.0802 6.39868 12.08 6.27001C12.08 5.96864 11.9013 5.67832 11.612 5.50633Z" fill="black"/>
</g>
</svg>
