<svg width="11" height="13" viewBox="0 0 11 13" fill="none" xmlns="http://www.w3.org/2000/svg">
<path d="M9.85948 3.32382L5.32908 0.824219L1.83998 2.75099L0.955078 6.44831L5.64178 12.1245L9.44358 7.8543L9.85948 3.32382Z" fill="#FF0019"/>
<path d="M5.5961 1.5989C6.6336 1.5989 7.6078 2.00521 8.339 2.74371C9.065 3.47626 9.4648 4.45035 9.4648 5.48333C9.4648 6.51631 9.065 7.4884 8.3397 8.2223L5.5961 10.991L2.8533 8.221C2.1279 7.4884 1.7281 6.51631 1.7281 5.48201C1.7281 4.4477 2.1279 3.4756 2.8533 2.74173C3.5853 2.0051 4.5709 1.59445 5.5961 1.5989ZM5.5961 0.275411C4.2321 0.271561 2.9216 0.819601 1.9486 1.80073C1.4703 2.28026 1.0902 2.85311 0.8307 3.48558C0.5712 4.11805 0.4375 4.7974 0.4375 5.48366C0.4375 6.16993 0.5712 6.84927 0.8307 7.4817C1.0902 8.1142 1.4703 8.6871 1.9486 9.1666L5.5961 12.8479L9.2436 9.1653C9.7218 8.6858 10.1017 8.113 10.3611 7.4806C10.6205 6.84829 10.7541 6.16911 10.7541 5.483C10.7541 4.79689 10.6205 4.11771 10.3611 3.48535C10.1017 2.853 9.7218 2.28024 9.2436 1.80073C8.2707 0.819601 6.9602 0.271561 5.5961 0.275411ZM5.5961 3.91434C6.0269 3.91434 6.4318 4.08639 6.7361 4.39807C6.8859 4.55171 7.0048 4.73415 7.0859 4.93495C7.167 5.13576 7.2087 5.351 7.2087 5.56836C7.2087 5.78573 7.167 6.00097 7.0859 6.20178C7.0048 6.40258 6.8859 6.58502 6.7361 6.73866C6.4311 7.051 6.0269 7.2224 5.5961 7.2224C5.1654 7.2224 4.7612 7.0503 4.4562 6.73866C4.3064 6.58502 4.1875 6.40258 4.1064 6.20178C4.0253 6.00097 3.9836 5.78573 3.9836 5.56836C3.9836 5.351 4.0253 5.13576 4.1064 4.93495C4.1875 4.73415 4.3064 4.55171 4.4562 4.39807C4.7586 4.08808 5.1687 3.91408 5.5961 3.91434ZM5.5961 3.25259C5.2248 3.25236 4.8591 3.34615 4.5316 3.52565C4.204 3.70515 3.9246 3.96483 3.7182 4.28165C3.5118 4.59847 3.3847 4.96266 3.3483 5.34194C3.3118 5.72121 3.3671 6.10386 3.5092 6.45597C3.6513 6.80807 3.8759 7.1188 4.163 7.3605C4.4501 7.6022 4.7908 7.7675 5.1551 7.8418C5.5193 7.916 5.8958 7.8968 6.2511 7.786C6.6064 7.6752 6.9295 7.4762 7.192 7.2065C7.615 6.77187 7.8525 6.18268 7.8525 5.56836C7.8525 4.95405 7.615 4.36486 7.192 3.93022C6.7686 3.49612 6.1946 3.25237 5.5961 3.25259Z" fill="black"/>
<path d="M5.58869 7.56663C6.76115 7.56663 7.71162 6.61616 7.71162 5.4437C7.71162 4.27124 6.76115 3.32077 5.58869 3.32077C4.41623 3.32077 3.46576 4.27124 3.46576 5.4437C3.46576 6.61616 4.41623 7.56663 5.58869 7.56663Z" fill="white" stroke="black" stroke-width="1.01569"/>
</svg>
