<svg width="18" height="22" viewBox="0 0 18 22" fill="none" xmlns="http://www.w3.org/2000/svg">
<path d="M16.1468 5.5144L8.5346 1.3145L2.67195 4.5519L1.18506 10.7644L9.06 20.3018L15.4479 13.1268L16.1468 5.5144Z" fill="#FF0019"/>
<path d="M8.71179 2.4699C10.455 2.4699 12.092 3.1526 13.3205 4.3935C14.5404 5.6244 15.2121 7.2611 15.2121 8.9968C15.2121 10.7324 14.5404 12.3658 13.3216 13.5989L8.71179 18.2511L4.10305 13.5967C2.88424 12.3658 2.21254 10.7324 2.21254 8.9945C2.21254 7.2566 2.88424 5.6233 4.10305 4.3902C5.3331 3.1524 6.98909 2.4625 8.71179 2.4699ZM8.71179 0.246096C6.41989 0.239696 4.21786 1.1605 2.58306 2.8091C1.77931 3.6148 1.14066 4.5773 0.704615 5.64C0.268565 6.7028 0.0439453 7.8442 0.0439453 8.9973C0.0439453 10.1504 0.268565 11.2919 0.704615 12.3546C1.14066 13.4173 1.77931 14.3799 2.58306 15.1856L8.71179 21.3711L14.8405 15.1834C15.6439 14.3777 16.2823 13.4153 16.7181 12.3528C17.154 11.2902 17.3785 10.149 17.3785 8.9962C17.3785 7.8434 17.154 6.7022 16.7181 5.6397C16.2823 4.5771 15.6439 3.6148 14.8405 2.8091C13.2057 1.1605 11.0037 0.239696 8.71179 0.246096ZM8.71179 6.3605C9.43549 6.3605 10.1159 6.6495 10.6272 7.1733C10.879 7.4314 11.0787 7.7379 11.2149 8.0753C11.3512 8.4128 11.4213 8.7744 11.4213 9.1396C11.4213 9.5049 11.3512 9.8665 11.2149 10.2039C11.0787 10.5413 10.879 10.8479 10.6272 11.106C10.1148 11.6308 9.43549 11.9188 8.71179 11.9188C7.98809 11.9188 7.3088 11.6297 6.7964 11.106C6.5446 10.8479 6.3449 10.5413 6.2086 10.2039C6.0724 9.8665 6.0023 9.5049 6.0023 9.1396C6.0023 8.7744 6.0724 8.4128 6.2086 8.0753C6.3449 7.7379 6.5446 7.4314 6.7964 7.1733C7.3046 6.6524 7.99359 6.36 8.71179 6.3605ZM8.71179 5.2486C8.08779 5.2482 7.4734 5.4058 6.923 5.7074C6.3726 6.009 5.9032 6.4453 5.5564 6.9776C5.2096 7.51 4.99607 8.1219 4.93482 8.7592C4.87357 9.3965 4.96645 10.0394 5.2052 10.631C5.444 11.2227 5.8213 11.7447 6.3037 12.1509C6.7861 12.557 7.3587 12.8348 7.9707 12.9595C8.5827 13.0842 9.21519 13.0521 9.81219 12.8659C10.4092 12.6797 10.9522 12.3452 11.3932 11.8921C12.1039 11.1618 12.5031 10.1718 12.5031 9.1396C12.5031 8.1074 12.1039 7.1175 11.3932 6.3871C10.6818 5.6577 9.71729 5.2482 8.71179 5.2486Z" fill="black"/>
<path d="M9.02441 13.6377C11.5232 13.6377 13.5488 11.6096 13.5488 9.1079C13.5488 6.60617 11.5232 4.57811 9.02441 4.57811C6.52565 4.57811 4.5 6.60617 4.5 9.1079C4.5 11.6096 6.52565 13.6377 9.02441 13.6377Z" fill="#FF0019"/>
<path fill-rule="evenodd" clip-rule="evenodd" d="M7.99518 9.824V13.4013C7.99518 13.5911 8.07058 13.7732 8.20478 13.9074C8.33908 14.0416 8.52108 14.1171 8.71088 14.1171C8.90078 14.1171 9.08278 14.0416 9.21698 13.9074C9.35128 13.7732 9.42668 13.5911 9.42668 13.4013L9.42598 9.8234L13.0036 9.8237C13.0976 9.8237 13.1906 9.8052 13.2774 9.7692C13.3642 9.7332 13.4431 9.6805 13.5095 9.614C13.576 9.5475 13.6286 9.4687 13.6646 9.3818C13.7005 9.295 13.719 9.2019 13.719 9.108C13.719 9.014 13.7004 8.921 13.6645 8.8342C13.6285 8.7474 13.5758 8.6685 13.5093 8.6021C13.4428 8.5356 13.3639 8.4829 13.2771 8.447C13.1903 8.4111 13.0972 8.3926 13.0033 8.3926L9.42628 8.3929V4.8156C9.42798 4.7207 9.41078 4.6263 9.37558 4.538C9.34038 4.4498 9.28798 4.3694 9.22148 4.3016C9.15488 4.2338 9.07548 4.18 8.98788 4.1432C8.90028 4.1064 8.80628 4.0874 8.71128 4.0874C8.61628 4.0873 8.52218 4.1062 8.43458 4.1429C8.34688 4.1796 8.26748 4.2334 8.20088 4.3011C8.13418 4.3689 8.08178 4.4492 8.04648 4.5374C8.01128 4.6256 7.99388 4.72 7.99548 4.815L7.99588 8.3933H4.4179C4.32291 8.3917 4.22855 8.409 4.14033 8.4442C4.0521 8.4795 3.97178 8.532 3.90405 8.5986C3.83632 8.6652 3.78254 8.7447 3.74584 8.8323C3.70915 8.9199 3.69027 9.014 3.69031 9.109C3.69036 9.204 3.70932 9.2981 3.7461 9.3857C3.78288 9.4732 3.83674 9.5526 3.90453 9.6192C3.97232 9.6858 4.05269 9.7382 4.14095 9.7733C4.22921 9.8085 4.32359 9.8257 4.41858 9.824H7.99518Z" fill="black"/>
</svg>
