<svg width="22" height="18" viewBox="0 0 22 18" fill="none" xmlns="http://www.w3.org/2000/svg">
<g id="Layer_1">
<g id="Group">
<g id="Group_2">
<path id="Vector" d="M21.1976 10.0754L21.1985 10.0745C21.2197 10.0533 21.2316 10.0243 21.2316 9.99408L21.2316 7.12959L21.2316 7.12912M21.1976 10.0754L20.2917 5.98463C20.9196 5.98537 21.4302 6.49793 21.4316 7.12912H21.2316M21.1976 10.0754C21.179 10.0944 21.1505 10.1067 21.121 10.1067C20.2986 10.1067 19.6324 10.7767 19.6324 11.6004C19.6324 12.4244 20.2989 13.0926 21.121 13.0926C21.1481 13.0926 21.1776 13.1045 21.1985 13.1255C21.2197 13.1467 21.2316 13.1757 21.2316 13.206V16.6944M21.1976 10.0754L21.2316 16.6944M21.2316 7.12912C21.2302 6.60736 20.8081 6.18524 20.2915 6.18463M21.2316 7.12912L20.2915 6.18463M20.2915 6.18463H18.7326H18.636L18.5759 6.10887C18.3085 5.77154 18.1976 5.33403 18.2766 4.90811M20.2915 6.18463L18.7326 5.98463C18.5008 5.69216 18.4049 5.31315 18.4733 4.94459M18.2766 4.90811C18.2766 4.90847 18.2765 4.90883 18.2764 4.90919L18.4733 4.94459M18.2766 4.90811L18.4733 4.94459M18.2766 4.90811C18.3533 4.48371 18.6098 4.11453 18.9776 3.89414L18.9843 3.89011L18.9914 3.88662C19.0191 3.8728 19.038 3.84996 19.0463 3.82071L19.0475 3.81659L19.0475 3.8166C19.0559 3.7895 19.0527 3.75923 19.037 3.73228L19.0364 3.73128L17.2975 0.711131L17.2968 0.710004C17.1742 0.493808 16.9688 0.336358 16.7291 0.271738L16.7289 0.27168C16.488 0.206449 16.2319 0.23984 16.0177 0.36478L16.0155 0.366078L16.0155 0.366064L5.9111 6.08896C5.91106 6.08899 5.91102 6.08901 5.91097 6.08904C5.90335 6.09341 5.89447 6.10037 5.88207 6.11483L5.82221 6.18463H5.73026L1.33964 6.18463C1.33957 6.18463 1.33951 6.18463 1.33945 6.18463C0.820517 6.18596 0.399219 6.60739 0.399219 7.12912V9.99408C0.399219 10.058 0.449888 10.1067 0.5091 10.1067C1.33177 10.1067 1.99618 10.777 1.99618 11.6004C1.99618 12.4241 1.33147 13.0926 0.5091 13.0926C0.450504 13.0926 0.399219 13.1415 0.399219 13.206V16.6946C0.399219 17.2169 0.820949 17.6391 1.33916 17.6391L20.2912 17.6391L20.2917 17.6391M18.4733 4.94459C18.5394 4.57677 18.7616 4.2567 19.0804 4.0657M19.0804 4.0657L20.2917 17.6391M19.0804 4.0657C19.1584 4.02691 19.2149 3.95901 19.2387 3.87545C19.264 3.79338 19.2528 3.70534 19.2097 3.63148L19.0804 4.0657ZM20.2917 17.6391C20.8096 17.6377 21.231 17.2164 21.2316 16.6944M20.2917 17.6391L21.2316 16.6944M15.911 15.9777V17.0147V17.2147H16.111H20.2917C20.5778 17.2132 20.8082 16.9819 20.8097 16.6946L15.911 15.9777ZM15.911 15.9777C15.9125 15.8948 15.8798 15.815 15.8203 15.7561L15.911 15.9777ZM15.6038 11.0945C15.5484 11.094 15.5021 11.0533 15.4935 10.9995L15.4935 10.9829L15.495 9.73319V9.73295C15.495 9.66819 15.545 9.62034 15.6048 9.62034C15.6669 9.62034 15.7161 9.66893 15.7162 9.73205C15.7162 9.7321 15.7162 9.73215 15.7162 9.7322L15.7147 10.9817V10.9819C15.7147 11.0445 15.6639 11.0943 15.6038 11.0945ZM15.4912 14.1078L15.4912 14.1078V14.1042V12.8546C15.4912 12.7915 15.5418 12.742 15.6026 12.742C15.6574 12.742 15.7037 12.7821 15.7125 12.836V12.8546V14.1042C15.7125 14.1342 15.7007 14.1632 15.6801 14.1847C15.6591 14.205 15.6293 14.2169 15.6011 14.2169C15.5729 14.2169 15.5437 14.2049 15.5236 14.1847L15.5227 14.1838C15.5015 14.1628 15.4907 14.1353 15.4912 14.1078ZM12.0729 3.1377L11.9745 2.96696L11.8024 3.0628L6.86731 5.80988L6.19408 6.18463H6.96458H13.4803H13.8253L13.6538 5.88521L13.4747 5.5726L13.4741 5.5716C13.4437 5.51916 13.4617 5.44946 13.5148 5.4181C13.5675 5.38781 13.6344 5.4052 13.6658 5.45983L13.6659 5.45997L14.0255 6.08445L14.0832 6.18463H14.1989H18.0088H18.3219L18.1903 5.90055C17.8614 5.1906 18.0533 4.34569 18.6568 3.84937L18.7875 3.74186L18.7031 3.59516L17.1076 0.821971L17.1075 0.821778C16.9085 0.476648 16.4698 0.35798 16.1254 0.556743L16.1251 0.556923L12.3389 2.75115L12.1663 2.85119L12.2659 3.02405L12.7332 3.83505C12.7333 3.83523 12.7334 3.83541 12.7335 3.83558C12.7636 3.88965 12.7459 3.95894 12.6922 3.99207C12.6384 4.02156 12.5711 4.00233 12.5411 3.95026L12.5411 3.95018L12.0729 3.1377ZM11.8996 3.23755L12.3678 4.05003L11.8996 3.23755ZM21.0097 13.4932V13.3238L20.8425 13.2959C20.0174 13.1584 19.4112 12.4404 19.4112 11.5996C19.4112 10.759 20.0173 10.0416 20.8425 9.90411L21.0097 9.87626V9.70684V7.12986L21.0096 7.12935C21.0086 6.73307 20.6895 6.41042 20.2927 6.40835H20.2917H15.9177H15.7177V6.60835V7.70136C15.7177 7.76475 15.6675 7.81397 15.6063 7.81397C15.5454 7.81397 15.495 7.76432 15.495 7.70136V6.60835V6.40835H15.295L1.33916 6.40835L1.33812 6.40835C0.942011 6.41042 0.621775 6.73082 0.619724 7.12883V7.12986V9.70684V9.87624L0.78682 9.90411C1.61149 10.0417 2.21892 10.7592 2.21892 11.5996C2.21892 12.4402 1.61217 13.1576 0.786846 13.2952L0.619724 13.323V13.4925L0.619721 16.6939L0.619727 16.6949C0.621775 17.0909 0.941663 17.4139 1.33916 17.4139H15.2898H15.4898V17.2139V15.9762C15.4898 15.9471 15.502 15.9174 15.5221 15.8972C15.5451 15.8741 15.5731 15.8638 15.5975 15.8643L15.5975 15.8643H15.6011C15.6302 15.8643 15.6576 15.8758 15.6777 15.8963L15.6795 15.8981C15.7007 15.9191 15.7115 15.9466 15.711 15.9741L15.711 15.9741V15.9777V17.2147V17.4147H15.911L20.2917 17.4147L20.2927 17.4147C20.6892 17.4126 21.0076 17.0918 21.0097 16.6957V16.6946V13.4932Z" fill="black" stroke="black" stroke-width="0.4"/>
<path id="Vector_2" d="M15.0909 14.1034C15.0899 14.2396 15.1436 14.3702 15.2394 14.4666C15.3346 14.5631 15.464 14.6169 15.6007 14.6169C15.7382 14.6169 15.8666 14.5627 15.9622 14.4679L15.964 14.4661C16.0588 14.3698 16.1121 14.2396 16.1121 14.1043V13.0546H16.1136V12.8546C16.1136 12.5718 15.8858 12.342 15.6022 12.342C15.3183 12.342 15.0909 12.5729 15.0909 12.8546V14.1034ZM15.0909 14.1034C15.0909 14.1031 15.0909 14.1028 15.0909 14.1025L15.2909 14.1043H15.0909V14.1034ZM15.6012 11.4945V11.4945C15.3207 11.4921 15.0916 11.2642 15.0916 10.9812V10.4966L15.0937 10.4987L15.0946 9.73299L15.6012 11.4945ZM15.6012 11.4945H15.603M15.6012 11.4945H15.603M15.603 11.4945C15.8844 11.4945 16.1138 11.2648 16.1143 10.9829C16.1143 10.9828 16.1143 10.9828 16.1143 10.9827C16.1143 10.9824 16.1143 10.9822 16.1143 10.9819L16.1158 9.73323V9.73299M15.603 11.4945L16.1158 9.73299M16.1158 9.73299C16.1158 9.44883 15.8867 9.22039 15.6044 9.22039C15.321 9.22039 15.0947 9.44995 15.0946 9.73276L16.1158 9.73299ZM20.6093 7.13032C20.608 6.95169 20.4653 6.80956 20.2907 6.8084H16.1173V7.70141C16.1173 7.98315 15.8899 8.21402 15.6059 8.21402C15.3223 8.21402 15.0946 7.98421 15.0946 7.70141V6.8084H1.33936C1.16363 6.80956 1.0205 6.95141 1.01934 7.13048V9.5444C1.95197 9.77818 2.61853 10.622 2.61853 11.5997C2.61853 12.5774 1.9513 13.4212 1.01934 13.655V16.6934C1.0205 16.8717 1.16422 17.014 1.33878 17.014H15.0894V15.9762C15.0894 15.8426 15.1421 15.7106 15.2388 15.6145M20.6093 7.13032L15.82 15.7561L15.9635 15.6168C15.9632 15.6165 15.9629 15.6162 15.9626 15.6159C15.8672 15.5182 15.7366 15.4648 15.6026 15.4644M20.6093 7.13032V9.54515C19.6766 9.77894 19.0108 10.6229 19.0108 11.6004C19.0108 12.578 19.6766 13.4219 20.6093 13.6557L20.6093 16.6942L20.6093 16.6947H20.8093L20.6093 7.13032ZM15.2388 15.6145C15.3328 15.5204 15.4629 15.4623 15.6026 15.4644M15.2388 15.6145C15.2387 15.6147 15.2385 15.6148 15.2383 15.615L15.38 15.7561L15.2392 15.6141C15.2391 15.6142 15.239 15.6143 15.2388 15.6145ZM15.6026 15.4644C15.6032 15.4644 15.6038 15.4644 15.6044 15.4644L15.6007 15.6644V15.4644C15.6013 15.4644 15.6019 15.4644 15.6026 15.4644ZM15.9106 17.0147V17.2147H16.1106V17.0147H15.9106ZM16.1106 15.9795C16.1106 15.9792 16.1106 15.9789 16.1106 15.9786V15.9777H15.9106L16.1106 15.9795ZM20.2907 17.0147C20.2906 17.0147 20.2904 17.0147 20.2903 17.0147L20.2913 17.2147V17.0147H20.2907Z" fill="#EFEFEF" stroke="black" stroke-width="0.4"/>
<path id="Vector_3" d="M13.3129 5.07235L13.3136 5.07191C13.5596 4.92941 13.8714 5.01501 14.0123 5.26013L14.0123 5.26004L13.839 5.35986L14.0124 5.26019L14.3142 5.78433H17.7194C17.4939 5.03067 17.7049 4.20524 18.2752 3.65365L16.7608 1.02134C16.6716 0.866627 16.4772 0.815177 16.3252 0.902826C16.3252 0.902846 16.3251 0.902866 16.3251 0.902886L12.7118 2.9969L13.0804 3.63653L13.0812 3.63801L13.0812 3.63801C13.2198 3.88324 13.1356 4.19323 12.895 4.33648L12.8916 4.33846L12.8916 4.33843C12.647 4.47771 12.3349 4.39384 12.1942 4.14951M13.3129 5.07235L11.8994 3.23725M13.3129 5.07235C13.0707 5.21407 12.9862 5.52725 13.1276 5.77155C13.1277 5.77175 13.1279 5.77194 13.128 5.77214L13.135 5.78433M13.3129 5.07235L13.135 5.78433M12.1942 4.14951L12.3676 4.04974L12.1943 4.14959L12.1942 4.14951ZM12.1942 4.14951L11.8245 3.50785M11.8245 3.50785L11.9967 3.412L11.8994 3.23725M11.8245 3.50785L7.73486 5.78433H13.135M11.8245 3.50785L11.7261 3.3371L11.8994 3.23725M11.8994 3.23725L13.135 5.78433" fill="#EFEFEF" stroke="black" stroke-width="0.4"/>
</g>
</g>
</g>
</svg>
