<svg width="27" height="27" viewBox="0 0 27 27" fill="none" xmlns="http://www.w3.org/2000/svg">
<g id="uil:moon" clip-path="url(#clip0_2695_110)">
<path id="Vector" d="M18.095 15.6804C19.1702 15.8865 20.2772 15.8572 21.34 15.5946C21.4703 15.5629 21.6069 15.5685 21.7342 15.6106C21.8616 15.6527 21.9747 15.7298 22.0604 15.833L22.0603 15.8331L22.0655 15.8389C22.1601 15.9442 22.2214 16.0752 22.2416 16.2153C22.2618 16.3554 22.2401 16.4984 22.1792 16.6262L22.1779 16.6289C21.5352 18.0302 20.5467 19.2452 19.3054 20.1596C18.0641 21.074 16.6108 21.6578 15.0819 21.8563C13.553 22.0548 11.9987 21.8613 10.5651 21.2941C9.13152 20.7269 7.86563 19.8046 6.88638 18.6138C5.90713 17.423 5.24665 16.0029 4.967 14.4867C4.68735 12.9706 4.7977 11.4082 5.28769 9.94641C5.77768 8.48462 6.63122 7.17138 7.76813 6.13006C8.90332 5.09032 10.2838 4.35575 11.7803 3.99511C11.9039 3.97507 12.0307 3.98779 12.148 4.03204C12.2672 4.07703 12.3722 4.15299 12.4523 4.25209C12.5324 4.3512 12.5846 4.46987 12.6036 4.59587C12.6224 4.7204 12.608 4.84764 12.5619 4.96479C12.2996 5.53974 12.1056 6.14348 11.9839 6.76362L11.9834 6.76619C11.6195 8.75789 12.0578 10.8127 13.2027 12.4826C14.3476 14.1524 16.1061 15.3019 18.095 15.6804ZM18.095 15.6804L18.1327 15.484L18.0953 15.6805C18.0952 15.6805 18.0951 15.6804 18.095 15.6804ZM12.0012 13.3106C10.6425 11.3184 10.1297 8.86846 10.5753 6.49852L10.6212 6.25553L10.6991 5.84395L10.3301 6.04219C8.93852 6.7898 7.81207 7.94926 7.10495 9.36181C6.39783 10.7744 6.14461 12.371 6.37997 13.933C6.61533 15.495 7.32775 16.9461 8.41969 18.0876C9.46582 19.1812 10.8113 19.9394 12.2854 20.2688L12.2779 20.3085L12.4741 20.3458C13.8396 20.6057 15.2502 20.4879 16.5537 20.005C17.8571 19.5221 19.004 18.6924 19.8706 17.6056L20.1382 17.27L19.7091 17.281C19.0767 17.2971 18.4444 17.2448 17.8231 17.1251L17.8226 17.125C15.4536 16.6747 13.3599 15.3029 12.0012 13.3106Z" fill="black" stroke="#EFEFEF" stroke-width="0.4"/>
</g>
<defs>
<clipPath id="clip0_2695_110">
<rect width="22" height="22" fill="white" transform="translate(4.93652 0.311035) rotate(10.7057)"/>
</clipPath>
</defs>
</svg>
