<svg width="17" height="14" viewBox="0 0 17 14" fill="none" xmlns="http://www.w3.org/2000/svg">
<g id="Group 623">
<path id="Vector" d="M9.62069 3.82912V3.92018L9.53003 3.92868C8.36842 4.03762 6.18726 4.4066 4.29902 5.66222C2.41688 6.91378 0.818954 9.0501 0.818977 12.7152L0.818929 12.7174C0.815557 12.8694 0.860138 13.0183 0.945973 13.1424C1.03169 13.2665 1.15401 13.3592 1.29495 13.4076C1.4335 13.4534 1.58265 13.4541 1.72163 13.4097C1.86077 13.3652 1.98295 13.2776 2.07088 13.1588L2.07065 13.1587L2.0755 13.1531C2.91725 12.1768 3.95848 11.398 5.12696 10.8707C6.29522 10.3434 7.56265 10.0803 8.84131 10.0995H9.52069H9.62069V10.1995V12.715C9.62131 12.8551 9.6626 12.9918 9.73928 13.1081C9.81598 13.2243 9.92463 13.3149 10.0515 13.3686C10.1783 13.4223 10.3179 13.4369 10.4527 13.4106C10.5875 13.3844 10.7118 13.3184 10.8101 13.2208C10.8102 13.2207 10.8103 13.2206 10.8105 13.2205L16.4109 7.54057L16.4111 7.54028C16.4768 7.4742 16.5291 7.3955 16.5647 7.3087C16.6004 7.22189 16.6187 7.12873 16.6187 7.03461C16.6187 6.94048 16.6004 6.84732 16.5647 6.76051C16.5291 6.67371 16.4768 6.59501 16.4111 6.52893L16.4109 6.52864L10.81 0.848321C10.81 0.848274 10.8099 0.848228 10.8099 0.848181C10.6794 0.717024 10.5037 0.643319 10.3206 0.642481C10.1355 0.642538 9.95763 0.717147 9.82626 0.850379C9.6948 0.983709 9.62069 1.16484 9.62069 1.354V3.82912ZM8.84075 8.66026L8.84006 8.66025C6.61096 8.64921 4.43768 9.36789 2.64321 10.7097L2.41919 10.8772L2.48624 10.6057C3.12041 8.03708 4.90308 6.71219 6.6101 6.0318C8.31453 5.35244 9.95147 5.31157 10.3208 5.31157C10.5061 5.31157 10.684 5.23696 10.8154 5.10368C10.9469 4.97035 11.021 4.78922 11.021 4.60006V3.30975V3.06552L11.1923 3.23962L14.857 6.96447L14.926 7.03461L14.857 7.10474L11.1923 10.8296L11.021 11.0037V10.7595V9.46915V9.46902C11.0212 9.29826 10.961 9.13328 10.8516 9.00406C10.7425 8.87511 10.5916 8.79035 10.4266 8.76473C9.90085 8.69411 9.37106 8.65921 8.84075 8.66026Z" fill="black" stroke="white" stroke-width="0.2"/>
</g>
</svg>
